# xmcd
#
# Track frame offsets:
#	150
#	18151
#	37334
#	57105
#	72628
#	98057
#	108877
#	126571
#	144718
#	163610
#
# Disc length: 2422 seconds
#
# Revision: 1
# Processed by: cddbd v1.5PL3 Copyright (c) Steve Scherf et al.
# Submitted via: audiograbber 1.83.01
#
DISCID=9009740a
DTITLE=Dutch Blues Bands - Blue Fits You
DYEAR=1900
DGENRE=
TTITLE0=Long Way Blues - Hey Baby
TTITLE1=Long Way Blues - You Got Me Wild
TTITLE2=Don John and The Blues Jive - No More
TTITLE3=Don John and The Blues Jive - Grandson Of Juke
TTITLE4=Shakey Ground - Pictures Never Lie
TTITLE5=Shakey Ground - Dukey Boogie
TTITLE6=Clodhoppers R&B Band - Back To The Rain
TTITLE7=Clodhoppers R&B Band - Run Sucker Run
TTITLE8=JP Band - Tell Me Woman
TTITLE9=JP Band - Hurt Feelings
EXTD=
EXTT0=
EXTT1=
EXTT2=
EXTT3=
EXTT4=
EXTT5=
EXTT6=
EXTT7=
EXTT8=
EXTT9=
PLAYORDER=
